<?xml version="1.0" standalone="no"?>
<!DOCTYPE svg PUBLIC "-//W3C//DTD SVG 1.1//EN" "http://www.w3.org/Graphics/SVG/1.1/DTD/svg11.dtd">
<svg xmlns:inkscape="http://www.inkscape.org/namespaces/inkscape" xmlns:sodipodi="http://sodipodi.sourceforge.net/DTD/sodipodi-0.dtd" xmlns="http://www.w3.org/2000/svg" xmlns:svg="http://www.w3.org/2000/svg" version="1.1" id="svg872" width="688" height="389.3333435058594" viewBox="0 0 688 389.33334" sodipodi:docname="aartxe.png" inkscape:version="1.2-dev (9ee32be, 2021-06-19)">
  <defs id="defs876"/>
  <sodipodi:namedview id="namedview874" pagecolor="#ffffff" bordercolor="#666666" borderopacity="1.0" inkscape:pageshadow="2" inkscape:pageopacity="0.0" inkscape:pagecheckerboard="0" showgrid="false" inkscape:zoom="0.50706181" inkscape:cx="332.30663" inkscape:cy="365.83311" inkscape:window-width="1280" inkscape:window-height="747" inkscape:window-x="0" inkscape:window-y="25" inkscape:window-maximized="1" inkscape:current-layer="g878"/>
  <g inkscape:groupmode="layer" inkscape:label="Image" id="g878">
    <g id="g1544" transform="translate(12.207448,-9.034121)">
      <path style="fill:#d0282f;stroke-width:0.666667" d="m 49.502602,347.83334 c -0.464424,-0.58581 0.580964,-3.6056 3.51949,-10.16667 2.299081,-5.13333 8.88253,-19.97977 14.629888,-32.99208 5.747353,-13.01232 10.801853,-23.88273 11.232213,-24.15647 1.010887,-0.64299 10.549514,-0.64953 11.533987,-0.008 0.676993,0.44123 5.4084,10.9457 19.88888,44.15646 2.63791,6.05 5.95721,13.64568 7.37624,16.87928 2.15793,4.9174 2.42216,5.97916 1.61504,6.48979 -1.17351,0.74243 -9.31026,0.81473 -10.44649,0.0928 -0.44814,-0.28474 -2.18148,-3.64258 -3.85185,-7.4619 -1.67037,-3.81931 -3.40371,-7.17716 -3.85185,-7.46189 -1.06363,-0.67577 -32.566003,-0.67577 -33.62963,0 -0.448147,0.28473 -2.181483,3.64258 -3.851853,7.46189 -1.670371,3.81932 -3.403704,7.17716 -3.851852,7.4619 -1.360583,0.86444 -9.579378,0.62914 -10.312213,-0.29523 z M 96.33416,321.99867 c 0.227067,-0.3674 -0.631333,-3.1424 -1.90756,-6.16666 -7.678173,-18.19496 -9.318013,-21.89222 -9.857787,-22.22581 -0.99724,-0.61633 -12.97714,27.19378 -12.23304,28.39775 0.552414,0.89382 23.44582,0.88878 23.998387,-0.005 z m 34.49294,26.1146 c -0.66062,-0.41939 -0.80272,-7.69959 -0.66667,-34.15646 l 0.1729,-33.62347 16.85938,-0.17817 c 13.67524,-0.14452 17.6414,0.0222 21,0.88277 7.26078,1.8604 11.91748,5.45738 15.29452,11.81393 1.28785,2.42411 1.49562,3.83266 1.49691,10.14814 0.001,6.22815 -0.22843,7.83568 -1.52422,10.66666 -1.70899,3.73372 -5.21075,7.67283 -8.95992,10.07896 -1.375,0.88244 -2.5,1.9182 -2.5,2.30169 0,0.38349 3.02831,5.18959 6.72958,10.68022 3.95883,5.87271 6.57505,10.38567 6.35426,10.96105 -0.59038,1.53851 -10.53235,1.38065 -11.87659,-0.18858 -0.54966,-0.64167 -3.48554,-5.21667 -6.52416,-10.16667 -3.03863,-4.95 -5.8604,-9.22041 -6.2706,-9.48979 -1.30042,-0.854 -17.39045,-0.59892 -18.27916,0.28979 -0.54706,0.54707 -0.8,3.79156 -0.8,10.26201 0,8.01312 -0.16147,9.52397 -1.05452,9.86666 -1.52866,0.58661 -8.46534,0.47744 -9.45171,-0.14874 z m 35.49713,-32.36356 c 5.47371,-2.36177 7.82623,-5.97305 7.88389,-12.1023 0.0709,-7.54106 -3.39061,-11.57046 -11.09207,-12.91161 -5.8123,-1.01216 -19.9496,-0.96891 -20.98272,0.0642 -1.16237,1.16238 -1.13119,25.60616 0.0333,26.13148 0.45833,0.20675 5.48333,0.28344 11.16666,0.17041 7.9499,-0.1581 10.94632,-0.46998 12.9909,-1.35218 z m 49.0091,32.26481 C 214.47859,347.47455 214.28491,343.23923 214,318.85806 L 213.66667,290.33334 203.33333,290 193,289.66667 V 285 280.33334 h 26.98455 26.98456 l 0.55364,3.3024 C 248.60231,290.075 248.71797,290 237.70849,290 c -5.27969,0 -10.07398,0.1821 -10.65396,0.40466 -0.93886,0.36028 -1.05453,3.5335 -1.05453,28.92868 0,25.39518 -0.11567,28.5684 -1.05453,28.92867 -1.64618,0.6317 -8.49976,0.45524 -9.61214,-0.24749 z m 36.2411,-0.3478 c -0.23474,-0.61174 2.15221,-4.55875 6.1483,-10.16667 3.5926,-5.04169 8.74602,-12.27276 11.45204,-16.06904 2.70601,-3.79627 5.07653,-7.31017 5.26782,-7.80865 0.33262,-0.8668 -5.67917,-10.04035 -16.27977,-24.84171 -2.88399,-4.02685 -4.77661,-7.2902 -4.55817,-7.85945 0.29632,-0.77217 1.57934,-0.93357 6.20568,-0.78064 l 5.83214,0.19278 7.67876,10.7916 c 4.22332,5.93538 8.05365,10.95091 8.51184,11.14564 0.49623,0.21089 2.38308,-1.82251 4.66666,-5.02913 2.10848,-2.96074 5.54912,-7.80272 7.64587,-10.75995 2.09675,-2.95722 4.19675,-5.62074 4.66667,-5.91892 1.23987,-0.78676 11.69928,-0.68624 12.19583,0.1172 0.23107,0.37388 -1.22946,2.99888 -3.24562,5.83333 C 298.29533,299.82269 290,312.01295 290,312.61566 c 0,0.36585 5.27411,8.19782 11.72023,17.40438 6.88293,9.83041 11.56918,17.13283 11.35426,17.69291 -0.27788,0.72414 -1.73618,0.95372 -6.05798,0.95372 -6.71682,0 -5.09755,1.3987 -16.1453,-13.94604 -4.33445,-6.02033 -8.2027,-11.05334 -8.5961,-11.18448 -0.3934,-0.13113 -4.4337,4.93705 -8.97844,11.26263 -4.54474,6.32558 -8.7957,12.03359 -9.44658,12.68447 -1.59931,1.59931 -11.67456,1.74989 -12.27566,0.18347 z m 74.5589,0.19995 c -1.25094,-1.25094 -1.14274,-66.08563 0.11204,-67.12699 0.65167,-0.54084 7.64593,-0.70688 24.5,-0.58164 l 23.58796,0.1753 0.19588,4.83333 0.19587,4.83333 -17.86254,0.0102 c -9.8244,0.005 -18.24689,0.2541 -18.71665,0.55219 -0.6389,0.40542 -0.80688,2.71245 -0.66666,9.15646 l 0.18744,8.61449 16.33333,0.33333 16.33333,0.33334 v 4.66666 4.66667 L 354,318.69657 c -8.98333,0.19977 -16.40833,0.42477 -16.5,0.5 -0.0917,0.0752 -0.16667,4.18677 -0.16667,9.13677 0,4.95 0.075,9.06325 0.16667,9.14055 0.0917,0.0773 8.71667,0.3023 19.16667,0.5 l 19,0.35945 0.19998,4.22487 c 0.12028,2.54094 -0.11154,4.60026 -0.58162,5.16667 -1.05942,1.27653 -47.88189,1.4116 -49.1517,0.14179 z m 200.3524,-199.02394 -3.18093,-0.25028 0.18093,-12.75261 0.18094,-12.7526 32.55458,-31.615638 32.55458,-31.615631 12.22658,0.242073 c 6.72463,0.13314 12.47507,0.490698 12.77876,0.794575 0.85746,0.857983 0.23033,24.601102 -0.67926,25.716709 -0.42272,0.518467 -15.07494,14.843472 -32.5605,31.833332 l -31.79193,30.89068 -9.54141,-0.12017 c -5.24777,-0.0661 -10.97282,-0.23279 -12.72234,-0.37044 z M 273.23197,117.13128 c -17.47242,-17.305538 -32.09742,-32.119892 -32.5,-32.920785 -0.77316,-1.5381 -1.05457,-22.594088 -0.32731,-24.489303 0.34947,-0.910714 2.14311,-1.054524 13.15225,-1.054524 h 12.74758 l 32.01442,31.992447 32.01442,31.992445 0.20928,12.05458 c 0.14917,8.59284 -0.0179,12.32824 -0.58164,13.00755 -0.63455,0.76459 -3.1799,0.94599 -12.87593,0.91759 L 305,148.5959 Z m 62.2347,30.73539 c -0.56309,-0.56309 -0.8,-4.36125 -0.8,-12.82564 v -12.02564 l 32.1896,-32.189602 32.18959,-32.189598 12.64374,0.181906 12.64373,0.181905 0.18193,12.648854 0.18192,12.64886 -32.17935,32.184475 -32.17934,32.18448 h -12.03591 c -8.47238,0 -12.27277,-0.23686 -12.83591,-0.8 z m 126.04102,-31.37436 -32.20484,-32.204835 0.18191,-12.64374 0.18191,-12.643734 12.64885,-0.181924 12.64886,-0.181925 32.19454,32.181923 L 519.35347,123 519.17673,135.66667 519,148.33334 l -12.64373,0.1819 -12.64374,0.18191 z" id="path1086"/>
      <g id="g1539">
        <path style="fill:#4d4d4d;stroke-width:0.666667" d="m 405.51458,346.50001 c -1.05211,-1.3516 -22.18223,-64.62574 -21.79222,-65.25679 0.19598,-0.3171 2.72807,-0.57655 5.62686,-0.57655 4.34211,0 5.37827,0.20551 5.88217,1.16667 0.33639,0.64166 3.81588,11.81667 7.73218,24.83333 7.89848,26.2523 8.19765,27.12693 8.98484,26.26809 0.47492,-0.51815 10.24932,-32.1414 14.19793,-45.93476 0.73475,-2.56666 1.63915,-5.04166 2.00975,-5.5 0.43555,-0.53864 2.52412,-0.83333 5.90614,-0.83333 h 5.23229 l 2.00827,6.5 c 1.10454,3.575 4.65556,15.18076 7.89115,25.79058 3.23559,10.60983 6.22419,19.40436 6.64133,19.5434 0.78792,0.26264 1.45284,-1.7614 10.45782,-31.83398 2.79978,-9.35 5.37277,-17.675 5.71775,-18.5 0.57655,-1.37876 1.05947,-1.5 5.97487,-1.5 4.18613,0 5.34762,0.20652 5.34762,0.95085 0,1.50369 -21.18262,63.73093 -22.05043,64.77659 -0.84752,1.0212 -9.61327,1.34444 -11.08533,0.40878 -0.80425,-0.5112 -1.96766,-4.06398 -11.06915,-33.80288 -2.69321,-8.8 -5.17388,-15.9618 -5.51259,-15.91511 -0.63674,0.0878 -3.4749,8.50593 -11.52585,34.18637 -2.57571,8.21586 -5.07466,15.18627 -5.55321,15.4898 -1.41296,0.89616 -10.28496,0.68603 -11.02219,-0.26106 z m 88.64567,0.28465 c -0.66037,-0.42303 -0.80278,-7.5066 -0.66666,-33.16129 L 493.66667,281 l 23.28856,-0.17544 c 18.18786,-0.13702 23.40564,0.009 23.82312,0.66666 0.88732,1.39781 0.64176,7.60684 -0.33282,8.41567 -0.58491,0.48543 -6.78297,0.79759 -18.16667,0.91497 L 505,291 v 8.66667 8.66667 l 15.28046,0.17947 c 10.20454,0.11986 15.58449,0.43181 16.19573,0.93909 0.63736,0.52896 0.85584,1.99267 0.71954,4.82053 L 537,318.33334 l -16,0.33333 -16,0.33334 v 9 9 l 18.33333,0.33333 18.33334,0.33333 v 4.66667 4.66667 l -23.33334,0.1613 c -12.83333,0.0887 -23.71122,-0.0808 -24.17308,-0.37665 z m 62.66667,0.0169 c -0.66019,-0.43623 -0.80274,-7.53057 -0.66667,-33.17823 L 556.33333,281 h 19 c 17.87751,0 19.17724,0.0824 22,1.39456 6.89607,3.20566 9.97072,7.7095 9.97072,14.60545 0,6.17492 -2.33202,10.12865 -8.36783,14.18694 -0.76719,0.51583 -0.97936,0.98628 -0.53619,1.1889 8.18194,3.74076 11.60964,8.6325 11.58533,16.53362 -0.0185,6.00736 -1.42556,9.23098 -5.65373,12.95276 -5.30271,4.66763 -7.35071,5.04981 -28.33163,5.287 -10.08333,0.11399 -18.71122,-0.0425 -19.17308,-0.34763 z m 36.6111,-11.33473 c 5.82659,-2.86347 6.97549,-9.66297 2.34912,-13.90273 -3.11945,-2.85876 -7.44987,-3.645 -18.82092,-3.41714 l -9.29955,0.18635 -0.18757,8.63141 c -0.10316,4.74728 -0.026,9.05248 0.1715,9.56712 0.29357,0.76502 2.39529,0.8924 11.5209,0.69826 10.00191,-0.21278 11.48447,-0.39602 14.26652,-1.76326 z m -2.31557,-28.76245 c 3.5685,-1.62014 5.15015,-4.49099 4.69568,-8.52306 -0.70027,-6.21275 -4.33668,-7.66404 -18.4848,-7.37728 L 567.66667,291 l -0.18968,7.62591 c -0.10432,4.19424 -0.0387,8.01924 0.14574,8.5 0.25678,0.66916 2.72392,0.87066 10.52302,0.85945 8.56344,-0.0123 10.63224,-0.21652 12.9767,-1.28095 z M 51.777778,242.88889 c -0.244445,-0.24444 -0.444445,-6.16884 -0.444445,-13.16532 v -12.72089 l 31.869314,-31.84952 31.869313,-31.84953 12.96402,0.18152 12.96402,0.18152 0.18188,12.63692 0.18188,12.63693 -32.19641,32.1964 -32.19641,32.19642 H 64.596581 c -6.805897,0 -12.574359,-0.2 -12.818803,-0.44445 z M 178.18271,211.17596 146,179.01858 v -12.84262 -12.84262 h 12.84262 12.84263 l 32.15737,32.1827 L 236,217.69875 v 12.01729 c 0,8.4579 -0.23695,12.25425 -0.8,12.8173 -0.56305,0.56304 -4.3594,0.8 -12.81729,0.8 h -12.0173 z m 62.46486,30.78836 c -0.47694,-0.89118 -0.65965,-5.4284 -0.52346,-12.9991 l 0.20922,-11.63009 31.9974,-32.0009 31.9974,-32.00089 h 12.7646 c 11.02467,0 12.81978,0.14374 13.16928,1.05452 0.22256,0.57999 0.40466,6.19784 0.40466,12.48412 v 11.4296 l -32.49081,32.51588 -32.4908,32.51588 h -12.15241 c -11.57569,0 -12.18718,-0.0649 -12.88508,-1.36902 z m 126.5191,-31.12326 -32.5,-32.51278 v -11.44294 c 0,-6.29362 0.18209,-11.91749 0.40466,-12.49748 0.3495,-0.91078 2.1446,-1.05452 13.16927,-1.05452 h 12.76461 l 31.84564,31.85083 31.84565,31.85083 -0.18158,12.9825 L 424.33333,243 412,243.17692 l -12.33333,0.17692 z" id="path1084"/>
      </g>
    </g>
  </g>
</svg>